<?xml version="1.0" encoding="UTF-8"?>
<svg xmlns="http://www.w3.org/2000/svg" xmlns:xlink="http://www.w3.org/1999/xlink" width="122px" height="100px" viewBox="0 0 121 100" version="1.1">
<g id="surface1">
<path style=" stroke:none;fill-rule:nonzero;fill:rgb(77.647059%,77.647059%,77.647059%);fill-opacity:1;" d="M 107.257812 84.097656 C 107.257812 75.296875 84.332031 68.164062 56.050781 68.164062 C 27.769531 68.164062 4.84375 75.296875 4.84375 84.097656 C 4.84375 92.898438 27.769531 100.035156 56.050781 100.035156 C 84.332031 100.035156 107.257812 92.898438 107.257812 84.097656 Z M 107.257812 84.097656 "/>
<path style=" stroke:none;fill-rule:nonzero;fill:rgb(0%,0%,0%);fill-opacity:1;" d="M 41.585938 0 C 20.632812 0.15625 -2.441406 16.996094 0.207031 42.054688 C 1.058594 50.101562 3.871094 54.746094 10.523438 57.800781 C 17.703125 61.09375 21.796875 68.667969 20.488281 80.300781 C 18.523438 81.273438 17.046875 82.496094 16.707031 84.289062 C 18.195312 84.253906 19.660156 84.226562 21.171875 85.152344 C 25.191406 87.617188 27.359375 90.601562 29.671875 95.453125 C 30.007812 96.167969 31.289062 96.023438 31.3125 94.839844 C 31.347656 93.15625 30.945312 91.363281 30.28125 89.476562 C 29.695312 87.820312 30.886719 87.886719 31.648438 88.261719 C 32.914062 88.878906 34.878906 90.136719 37.65625 90.871094 C 38.722656 91.148438 38.84375 90.097656 38.691406 89.476562 C 38.320312 87.976562 36.511719 87.3125 33.84375 85.644531 C 32.890625 85.050781 33.660156 83.707031 34.863281 83.984375 L 38.863281 84.464844 C 39.527344 84.617188 39.765625 83.246094 39.039062 82.894531 C 36.230469 81.539062 33.324219 80.882812 28.390625 81.339844 C 26.09375 75.511719 22.496094 69.066406 25.289062 65.070312 C 27.789062 61.496094 31.460938 60.9375 33.03125 73.734375 C 32.042969 74.351562 30.8125 74.734375 30.789062 76.328125 C 32.214844 75.761719 33.003906 76.050781 33.714844 76.328125 C 37.253906 77.722656 40.726562 80.675781 44.1875 83.761719 C 44.929688 84.417969 45.851562 83.417969 45.570312 82.558594 C 45.148438 81.265625 43.980469 80.433594 42.648438 78.570312 C 42.007812 77.675781 43.640625 77.167969 44.800781 77.199219 C 47.539062 77.28125 49.324219 78.847656 51.753906 79.4375 C 52.640625 79.648438 53.679688 79.042969 53.121094 78.058594 C 52.433594 76.84375 50.546875 76.242188 49.328125 75.386719 C 48.46875 74.78125 48.730469 73.964844 49.863281 74.070312 C 50.636719 74.144531 51.539062 74.523438 52.613281 74.421875 C 54.578125 74.238281 54.136719 72.996094 52.4375 72.515625 C 48.675781 71.460938 44.550781 71.261719 40.246094 71.476562 C 31.578125 69.8125 34.007812 54.566406 40.246094 53.476562 C 46.09375 52.453125 52.695312 50.820312 60.003906 47.070312 C 66.460938 45.988281 72.820312 44.589844 78.378906 40.328125 C 87.890625 37.445312 100.503906 43.535156 118.757812 70.148438 C 119.535156 71.277344 121.886719 72.125 120.640625 68.882812 C 117.5 60.6875 107.164062 50.289062 102.425781 42.570312 C 97.566406 34.648438 99.59375 30.371094 94.527344 24.394531 C 90.3125 19.417969 85.136719 19.253906 79.234375 20.933594 C 74.597656 22.253906 71.480469 19.515625 68.761719 14.703125 C 62.957031 4.421875 52.558594 -0.078125 41.585938 0 Z M 88.125 27.425781 C 89.335938 27.425781 90.324219 28.40625 90.324219 29.625 C 90.324219 30.84375 89.335938 31.839844 88.125 31.839844 C 86.917969 31.839844 85.945312 30.84375 85.945312 29.625 C 85.945312 28.40625 86.917969 27.425781 88.125 27.425781 Z M 88.125 27.425781 "/>
</g>
</svg>
